PathFileType	4	(X/Y/Z)	Walk3.trc
DataRate	CameraRate	NumFrames	NumMarkers	Units	OrigDataRate	OrigDataStartFrame	OrigNumFrames
200.000000	200.000000	7	61	mm	200.000000	695	737
Frame#	Times		LTH3		RCAR		LBHD		RTH2		LWRU		LUA1		LElbow		RTH3		LFA1		LCAR		C7		RPSI		LElbowM		RTB3		RBHD		RASI		RTB1		RTB2		RToe		LTH4		RFA1		RMT5		RWRU		LWRR		LTH2		RLFC		RElbow		RTB4		RMT1		RMMAL		T10		RBack		RLMAL		STRN		LASI		LPSI		CLAV		RCAL		RUA1		RElbowM		LLFC		LFHD		LACR1		LTB3		RFHD		LTB4		LCAL		RACR1		LTB2		LMMAL		RTH1		LTB1		LMT5		LLMAL		RTH4		LMFC		RWRR		RMFC		LTH1		LToe		LMT1
			X1	Y1	Z1	X2	Y2	Z2	X3	Y3	Z3	X4	Y4	Z4	X5	Y5	Z5	X6	Y6	Z6	X7	Y7	Z7	X8	Y8	Z8	X9	Y9	Z9	X10	Y10	Z10	X11	Y11	Z11	X12	Y12	Z12	X13	Y13	Z13	X14	Y14	Z14	X15	Y15	Z15	X16	Y16	Z16	X17	Y17	Z17	X18	Y18	Z18	X19	Y19	Z19	X20	Y20	Z20	X21	Y21	Z21	X22	Y22	Z22	X23	Y23	Z23	X24	Y24	Z24	X25	Y25	Z25	X26	Y26	Z26	X27	Y27	Z27	X28	Y28	Z28	X29	Y29	Z29	X30	Y30	Z30	X31	Y31	Z31	X32	Y32	Z32	X33	Y33	Z33	X34	Y34	Z34	X35	Y35	Z35	X36	Y36	Z36	X37	Y37	Z37	X38	Y38	Z38	X39	Y39	Z39	X40	Y40	Z40	X41	Y41	Z41	X42	Y42	Z42	X43	Y43	Z43	X44	Y44	Z44	X45	Y45	Z45	X46	Y46	Z46	X47	Y47	Z47	X48	Y48	Z48	X49	Y49	Z49	X50	Y50	Z50	X51	Y51	Z51	X52	Y52	Z52	X53	Y53	Z53	X54	Y54	Z54	X55	Y55	Z55	X56	Y56	Z56	X57	Y57	Z57	X58	Y58	Z58	X59	Y59	Z59	X60	Y60	Z60	X61	Y61	Z61

695	3.475	835.32	617.75	-159.46	911.73	839.75	303.43	814.7	1651.4	-105.44	994.02	747.3	164.76	952.88	884.66	-306.95	840.87	1304.3	-290.36	842.47	1148.4	-319.37	955.94	636.42	191.69	895.75	1005.8	-324.2	1034	864.4	-309.64	783.32	1521.6	-26.577	686.05	1027.3	32.568	803.01	1131.4	-254.88	899.97	231.22	100.6	819.47	1662.4	35.833	895.71	1052.4	134.18	986.15	394.95	121.65	909.43	317.5	171.45	971.13	47.85	136.08	839.65	708.5	-176.87	812.36	999.31	292.44	875.24	54.298	172.04	849.39	866.83	295.61	1014	911.92	-255.82	907.96	710.48	-152.48	968.16	525.12	185.87	785.82	1146.6	267.6	945.06	312.09	109.53	930.61	52.584	106.41	858.08	144	59.741	677.43	1298.2	-25.079	702.62	1436.6	104.19	804.77	132.44	131.38	957.25	1258.8	-24.046	891.6	1047.3	-153.53	683.69	1026.1	-45.469	913.1	1432.6	-24.707	751.14	113.19	71.431	820.41	1299.9	233.11	761.18	1129.8	192.32	820.95	513.39	-145.57	995.92	1683.8	-69.508	855.74	1474.5	-190.74	801.53	192.83	-57.656	997.78	1688.1	7.0175	825.2	286.41	-59.494	675.26	28.499	-58.017	856.6	1471.1	135.6	807.22	289.12	-133.35	762.27	91.758	-15.08	896.35	816.27	192.76	846.8	373.71	-63.858	836.45	22.235	-130.2	737.75	70.356	-97.953	935.37	728.63	200.37	827.85	521.68	-16.226	908.69	876.5	247.3	996.84	537	56.186	847.61	799.65	-193.62	936.64	32.01	-58.119	882.1	39.847	-44.367
696	3.48	837.2	617.72	-159.51	911.8	839.25	304.8	819.5	1651.4	-105.35	999.32	748.09	164.39	961.78	885.89	-307.4	846.72	1304.6	-290.6	849.26	1148.8	-319.98	961.92	637.01	191.41	903.72	1006.6	-324.82	1043.1	866.34	-310.11	788.11	1521.5	-26.59	690.54	1027.3	32.515	809.85	1131.4	-255.59	913.75	229.67	100.68	824.28	1662.2	35.947	900.2	1052.3	134.17	995.57	395.56	121.5	920.8	316.4	171.41	989.68	48.304	136.88	842.27	708.43	-176.83	813.44	999.39	292.83	893.51	52.483	172.62	849.68	866.65	296.34	1022.6	913.69	-256.3	910.57	709.87	-152.4	974.86	525.6	185.4	787.96	1146.8	267.66	956.67	311.68	109.51	949.09	52.047	107.08	874.34	141.32	59.881	682.12	1298.2	-25.246	707.17	1436.6	103.95	821.07	128.52	131.57	961.89	1258.7	-24.062	896.11	1047.2	-153.57	688.13	1026.1	-45.535	917.84	1432.4	-24.66	768.16	107.56	71.507	823.55	1299.9	233.28	763.83	1129.9	192.25	822.02	513.37	-145.61	1000.7	1683.7	-69.39	860.74	1474.6	-190.64	801.8	192.81	-57.702	1002.6	1687.9	7.1309	825.67	286.35	-59.533	675.29	28.609	-58.04	861.15	1471	135.74	807.66	289.11	-133.38	762.29	91.809	-15.102	901.5	816.6	192.85	847.44	373.58	-63.898	836.48	22.244	-130.22	737.76	70.458	-97.983	940.6	729.04	200.04	829	521.63	-16.264	909.36	875.95	248.61	1002.6	537.65	55.773	851	799.51	-193.55	936.64	32.013	-58.097	882.1	39.836	-44.361
697	3.485	839.1	617.67	-159.56	911.93	838.77	306.14	824.3	1651.3	-105.24	1004.5	748.75	164.01	970.62	887.09	-307.81	852.57	1305	-290.82	856.04	1149.2	-320.59	967.75	637.5	191.1	911.64	1007.4	-325.4	1052	868.24	-310.54	792.91	1521.4	-26.593	695.03	1027.3	32.481	816.65	1131.4	-256.29	927.56	228.17	100.8	829.1	1662.1	36.069	904.68	1052.1	134.18	1004.9	396.16	121.32	932.16	315.32	171.37	1008.3	48.937	137.69	844.89	708.34	-176.79	814.56	999.47	293.19	911.91	50.825	173.25	850.02	866.46	297.03	1031.2	915.42	-256.74	913.19	709.25	-152.32	981.4	525.99	184.91	790.12	1147	267.7	968.23	311.29	109.49	967.64	51.669	107.78	890.67	138.71	60.079	686.81	1298.1	-25.393	711.74	1436.5	103.74	837.53	124.68	131.82	966.54	1258.5	-24.055	900.62	1047	-153.58	692.58	1026.1	-45.587	922.59	1432.3	-24.601	785.37	101.99	71.678	826.71	1299.8	233.46	766.49	1130.1	192.17	823.11	513.34	-145.65	1005.5	1683.6	-69.258	865.75	1474.6	-190.53	802.09	192.79	-57.75	1007.4	1687.8	7.2594	826.16	286.29	-59.575	675.31	28.729	-58.066	865.71	1470.8	135.89	808.11	289.1	-133.42	762.31	91.86	-15.126	906.6	816.84	192.94	848.1	373.45	-63.938	836.49	22.254	-130.23	737.78	70.564	-98.017	945.62	729.31	199.63	830.18	521.59	-16.303	910.08	875.43	249.91	1008.2	538.18	55.35	854.36	799.35	-193.5	936.63	32.016	-58.075	882.09	39.828	-44.358
698	3.49	841.03	617.62	-159.61	912.12	838.31	307.46	829.13	1651.1	-105.12	1009.7	749.29	163.64	979.41	888.27	-308.18	858.41	1305.2	-291.03	862.79	1149.6	-321.18	973.42	637.88	190.76	919.51	1008.2	-325.96	1060.9	870.11	-310.92	797.73	1521.3	-26.587	699.54	1027.3	32.467	823.41	1131.4	-256.98	941.39	226.73	100.94	833.93	1661.9	36.197	909.18	1051.8	134.21	1014.1	396.73	121.09	943.49	314.24	171.32	1026.9	49.762	138.48	847.53	708.23	-176.75	815.72	999.53	293.54	930.41	49.339	173.92	850.43	866.26	297.68	1039.7	917.12	-257.14	915.82	708.62	-152.24	987.77	526.28	184.4	792.3	1147.1	267.74	979.74	310.92	109.48	986.22	51.466	108.49	907.04	136.2	60.337	691.52	1298.1	-25.52	716.33	1436.5	103.55	854.11	120.93	132.13	971.2	1258.3	-24.026	905.14	1046.7	-153.55	697.04	1026.1	-45.622	927.36	1432.1	-24.529	802.74	96.536	71.951	829.91	1299.7	233.63	769.16	1130.3	192.08	824.24	513.3	-145.7	1010.3	1683.5	-69.113	870.77	1474.6	-190.41	802.38	192.77	-57.799	1012.2	1687.6	7.4021	826.66	286.23	-59.621	675.33	28.859	-58.095	870.3	1470.6	136.05	808.58	289.08	-133.46	762.34	91.914	-15.154	911.66	816.99	193	848.78	373.31	-63.978	836.51	22.263	-130.25	737.8	70.676	-98.054	950.47	729.45	199.15	831.38	521.57	-16.342	910.83	874.92	251.17	1013.7	538.57	54.923	857.71	799.18	-193.45	936.63	32.019	-58.054	882.09	39.822	-44.36
699	3.495	842.97	617.54	-159.66	912.38	837.86	308.74	833.97	1651	-105	1014.7	749.69	163.26	988.13	889.41	-308.51	864.23	1305.5	-291.21	869.51	1149.9	-321.76	978.95	638.14	190.4	927.33	1008.9	-326.48	1069.7	871.94	-311.24	802.56	1521.2	-26.572	704.05	1027.2	32.472	830.13	1131.4	-257.66	955.22	225.36	101.11	838.77	1661.6	36.333	913.68	1051.6	134.26	1023.2	397.29	120.83	954.81	313.18	171.26	1045.5	50.791	139.24	850.17	708.11	-176.7	816.93	999.58	293.87	949.01	48.038	174.61	850.9	866.04	298.29	1048.1	918.78	-257.49	918.47	707.98	-152.16	993.97	526.47	183.88	794.51	1147.2	267.76	991.19	310.58	109.46	1004.8	51.45	109.19	923.43	133.81	60.652	696.23	1298	-25.627	720.94	1436.4	103.37	870.82	117.3	132.51	975.86	1258	-23.975	909.66	1046.4	-153.49	701.5	1026	-45.639	932.15	1431.9	-24.443	820.26	91.205	72.334	833.13	1299.6	233.81	771.85	1130.4	191.99	825.39	513.26	-145.74	1015.2	1683.3	-68.958	875.8	1474.6	-190.28	802.69	192.74	-57.848	1017.1	1687.4	7.5579	827.19	286.16	-59.669	675.34	28.999	-58.128	874.91	1470.3	136.22	809.06	289.06	-133.49	762.37	91.971	-15.185	916.67	817.04	193.04	849.49	373.16	-64.02	836.52	22.272	-130.27	737.83	70.793	-98.095	955.16	729.47	198.64	832.61	521.55	-16.381	911.63	874.43	252.42	1019	538.83	54.491	861.04	798.99	-193.41	936.62	32.022	-58.032	882.09	39.819	-44.367
700	3.5	844.95	617.46	-159.7	912.7	837.43	310	838.82	1650.8	-104.86	1019.7	749.95	162.88	996.77	890.51	-308.79	870.05	1305.7	-291.38	876.21	1150.2	-322.32	984.31	638.28	190.01	935.09	1009.6	-326.98	1078.4	873.74	-311.53	807.41	1521	-26.548	708.57	1027.1	32.499	836.81	1131.3	-258.32	969.04	224.07	101.29	843.62	1661.4	36.477	918.2	1051.3	134.33	1032.2	397.84	120.53	966.1	312.13	171.2	1064.1	52.036	139.93	852.84	707.98	-176.64	818.18	999.61	294.19	967.68	46.936	175.31	851.44	865.81	298.86	1056.4	920.41	-257.79	921.14	707.34	-152.09	1000	526.55	183.34	796.75	1147.3	267.77	1002.6	310.27	109.43	1023.4	51.636	109.87	939.83	131.54	61.02	700.96	1297.9	-25.714	725.58	1436.2	103.21	887.64	113.81	132.96	980.54	1257.7	-23.905	914.18	1046.1	-153.39	705.97	1025.9	-45.635	936.96	1431.6	-24.342	837.91	86.024	72.828	836.39	1299.5	234	774.56	1130.6	191.89	826.58	513.21	-145.79	1020	1683	-68.791	880.84	1474.5	-190.13	803.02	192.72	-57.897	1021.9	1687.1	7.7252	827.74	286.09	-59.72	675.35	29.15	-58.163	879.54	1470.1	136.4	809.57	289.04	-133.52	762.41	92.031	-15.221	921.61	816.99	193.05	850.24	373.01	-64.063	836.52	22.279	-130.29	737.86	70.915	-98.138	959.75	729.38	198.11	833.87	521.54	-16.419	912.48	873.95	253.65	1024.2	538.96	54.057	864.37	798.79	-193.37	936.61	32.024	-58.011	882.09	39.817	-44.377
701	3.505	846.95	617.37	-159.74	913.08	837	311.22	843.69	1650.5	-104.71	1024.6	750.07	162.51	1005.3	891.58	-309.04	875.85	1305.8	-291.52	882.87	1150.5	-322.86	989.51	638.31	189.61	942.79	1010.2	-327.44	1087.1	875.49	-311.76	812.26	1520.8	-26.515	713.11	1027	32.548	843.44	1131.2	-258.96	982.83	222.88	101.49	848.49	1661.1	36.627	922.74	1050.9	134.42	1041.1	398.37	120.2	977.37	311.12	171.13	1082.7	53.505	140.56	855.52	707.84	-176.59	819.49	999.64	294.5	986.41	46.041	176.02	852.06	865.57	299.4	1064.7	921.99	-258.05	923.82	706.69	-152.01	1005.9	526.52	182.79	799.02	1147.4	267.78	1013.9	310.01	109.38	1042	52.035	110.51	956.2	129.43	61.435	705.69	1297.8	-25.78	730.24	1436	103.08	904.54	110.48	133.47	985.23	1257.4	-23.815	918.68	1045.8	-153.27	710.44	1025.8	-45.609	941.78	1431.3	-24.226	855.65	81.017	73.436	839.69	1299.3	234.18	777.29	1130.7	191.78	827.81	513.16	-145.83	1024.9	1682.8	-68.615	885.89	1474.3	-189.98	803.35	192.69	-57.945	1026.8	1686.8	7.9023	828.32	286.01	-59.773	675.35	29.313	-58.2	884.19	1469.8	136.59	810.1	289.01	-133.56	762.45	92.096	-15.259	926.48	816.85	193.05	851.01	372.86	-64.106	836.52	22.285	-130.32	737.9	71.042	-98.183	964.25	729.19	197.58	835.16	521.54	-16.456	913.38	873.48	254.85	1029.2	538.96	53.618	867.7	798.57	-193.32	936.59	32.026	-57.991	882.08	39.815	-44.391
